<?xml version="1.0" encoding="UTF-8"?>
<svg xmlns="http://www.w3.org/2000/svg" xmlns:xlink="http://www.w3.org/1999/xlink" viewBox="0 0 990.61 717.51"><defs><linearGradient id="linear-gradient" x1="137.93" y1="410.69" x2="101.55" y2="375.97" gradientTransform="matrix(0.95, -0.17, 0.01, 1.05, 3.59, 3.97)" gradientUnits="userSpaceOnUse"><stop offset="0.11" stop-color="#e02f70"/><stop offset="1" stop-color="#cf2577"/></linearGradient><linearGradient id="linear-gradient-2" x1="77.92" y1="502.04" x2="43.37" y2="465.39" gradientTransform="matrix(0.95, -0.17, 0.01, 1.05, 3.59, 3.97)" gradientUnits="userSpaceOnUse"><stop offset="0.14" stop-color="#4c71d9"/><stop offset="0.79" stop-color="#4c5bd9"/></linearGradient><linearGradient id="linear-gradient-3" x1="394.16" y1="116.45" x2="477.59" y2="116.45" gradientUnits="userSpaceOnUse"><stop offset="0" stop-color="#4f75e0"/><stop offset="0.48" stop-color="#4f73df"/><stop offset="0.76" stop-color="#4e6add"/><stop offset="0.98" stop-color="#4c5cd9"/><stop offset="1" stop-color="#4c5bd9"/></linearGradient><linearGradient id="linear-gradient-4" x1="504.99" y1="497.79" x2="709.91" y2="497.79" xlink:href="#linear-gradient-3"/></defs><g style="isolation:isolate"><g id="image"><polygon points="51.23 576.68 135.68 545.83 286.54 446.96 206.78 433.9 125.92 484.38 51.23 576.68" fill="#dee5ff"/><polygon points="173.03 317.19 221.09 286.7 172.54 273.19 124.43 303.63 173.03 317.19" fill="#c5c3ed"/><polygon points="175.42 494.02 223.53 463.58 221.09 286.7 172.98 317.2 175.42 494.02" fill="#7f7bb5"/><polygon points="175.6 493.99 125.86 480.62 123.43 303.8 173.17 317.17 175.6 493.99" fill="#9c9bc7"/><polygon points="108.06 308.85 156.75 278.35 107.78 264.87 59.66 295.31 108.06 308.85" fill="#ff5c97"/><polygon points="156.34 278.42 158.33 422.5 159.44 503.42 111.33 533.86 108.06 308.21 156.34 278.42" fill="url(#linear-gradient)"/><polygon points="108.06 308.85 111.2 533.88 62.28 520.37 59.66 295.31 108.06 308.85" fill="#f03c7d"/><polygon points="49.6 468.85 97.67 438.36 49.11 424.85 1 455.29 49.6 468.85" fill="#7399ff"/><polygon points="51.04 576.71 99.15 546.27 97.67 438.36 49.56 468.86 51.04 576.71" fill="url(#linear-gradient-2)"/><polygon points="51.23 576.68 1.49 563.3 0 455.46 49.74 468.83 51.23 576.68" fill="#5986ff"/><path d="M918.54,191.86c6.34,1.69,11.14,7.6,10.73,13.2L910.63,459.27c-.41,5.61-5.87,8.78-12.21,7.09L431.77,342c-6.33-1.69-11.13-7.6-10.72-13.2L439.68,74.57c.41-5.6,5.87-8.78,12.2-7.09Z" fill="#fff"/><path d="M905.27,464.75l-16,16.48-4.6-6.77L421,344.12c-5.59-1.57-16.05.93-21.81,5.26L219.61,483.71l-.29-2.65L191.8,499.25l-4.22-.59,1.85,11.5a4.85,4.85,0,0,0,3.86,3.79L675.88,650.19c5.59,1.57,14.91-.38,20.67-4.71L898.43,493.86c3.14-2.37,5.42-6.63,5.2-8.68Z" fill="#aeadd6"/><path d="M421,344.12c-5.59-1.57-16.05.93-21.81,5.26L219.61,483.71l-.29-2.65L191.8,499.25l-4.22-.59,1.85,11.5a4.85,4.85,0,0,0,3.86,3.79L675.88,650.19a20.19,20.19,0,0,0,8.28.23L668.63,533.17C671.77,530.8,421,344.12,421,344.12Z" fill="#c5cae8"/><path d="M673.91,634.79,191.39,499.15c-5.58-1.57-5.44-6.4.32-10.73L398.26,333.13c5.76-4.34,15.05-6.59,20.63-5L901.41,463.74c5.58,1.57,5.44,6.4-.32,10.73L694.54,629.77C688.78,634.1,679.49,636.36,673.91,634.79Z" fill="#e6e9ff"/><path d="M454.11,376.91a4.17,4.17,0,0,1-3.07.34l-28.69-7.9c-1-.29-1.34-.9-.69-1.37l18.19-12.93a4.18,4.18,0,0,1,3.07-.33l28.69,7.9c1,.28,1.35.89.69,1.36Z" fill="#c5cae8"/><path d="M488.52,411.09a4.19,4.19,0,0,1-3.08.34l-28.69-7.9c-1-.29-1.33-.89-.67-1.37l18.2-12.93a4.15,4.15,0,0,1,3.05-.33L506,396.8c1.05.29,1.34.9.69,1.36Z" fill="#c5cae8"/><path d="M472.82,431.48a4.15,4.15,0,0,1-3.06.33l-28.7-7.9c-1-.28-1.35-.89-.69-1.36l18.2-12.94a4.19,4.19,0,0,1,3.06-.32l28.69,7.9c1,.28,1.34.89.7,1.35Z" fill="#c5cae8"/><path d="M428.42,444a4.19,4.19,0,0,1-3.06.33l-28.69-7.9c-1-.28-1.33-.9-.68-1.36l18.19-12.93a4.15,4.15,0,0,1,3.06-.34l28.7,7.9c1,.28,1.32.9.67,1.36Z" fill="#c5cae8"/><path d="M350.72,450.41a4.1,4.1,0,0,1-3.06.33L319,442.84c-1-.28-1.35-.89-.69-1.36l21.36-15.19a4.21,4.21,0,0,1,3.07-.32l28.69,7.89c1,.29,1.33.91.69,1.36Z" fill="#c5cae8"/><path d="M400.2,464a5.15,5.15,0,0,1-3.66.17L359,453.85c-1.34-.37-1.92-1.06-1.26-1.53l21.36-15.18a5.21,5.21,0,0,1,3.64-.17l37.59,10.35c1.37.37,1.92,1.06,1.28,1.52Z" fill="#c5cae8"/><path d="M647.16,532.17a4,4,0,0,1-2.86.19l-28.67-7.9c-1-.28-1.46-.83-.91-1.22l7.9-5.62a4,4,0,0,1,2.88-.18l28.67,7.89c1,.29,1.43.84.89,1.22Z" fill="#c5cae8"/><path d="M685.52,543.19a4,4,0,0,1-2.87.19L654,535.49c-1-.29-1.45-.84-.9-1.22l7.89-5.62a4.07,4.07,0,0,1,2.89-.18l28.67,7.89c1,.28,1.43.84.89,1.22Z" fill="#c5cae8"/><path d="M726.14,553.94a3.92,3.92,0,0,1-2.83.16l-28.68-7.89c-1-.29-1.46-.82-.94-1.2l7.61-5.41a4,4,0,0,1,2.84-.16l28.68,7.9c1,.28,1.45.82.93,1.19Z" fill="#c5cae8"/><path d="M700.5,532.79a4,4,0,0,1-2.83.16L669,525.05c-1-.28-1.46-.82-.94-1.19l7.61-5.41a4,4,0,0,1,2.84-.16l28.68,7.89c1,.29,1.45.83.93,1.2Z" fill="#c5cae8"/><path d="M597.56,518.33a4.14,4.14,0,0,1-3.08.33L407.77,467.27c-1-.28-1.34-.9-.69-1.36l21.36-15.19a4.28,4.28,0,0,1,3.07-.33l186.71,51.39c1,.29,1.35.91.7,1.37Z" fill="#c5cae8"/><path d="M394.92,459.17a.44.44,0,0,1-.3,0l-21.93-6c-.12,0-.19-.09-.15-.12l1.33-.94a.51.51,0,0,1,.3,0l21.93,6c.12,0,.19.08.15.11Z" fill="#c5cae8"/><path d="M338.59,441.69a.22.22,0,0,1-.16,0l-9.32-2.57c-.05,0-.06,0,0-.08l1.33-.94a.25.25,0,0,1,.17,0l9.31,2.57c.05,0,.06.05,0,.08Z" fill="#c5cae8"/><path d="M467.75,454.78a4.21,4.21,0,0,1-3.07.33L436,447.21c-1-.28-1.34-.9-.69-1.36l18.19-12.94a4.26,4.26,0,0,1,3.08-.33l28.69,7.9c1,.28,1.34.9.68,1.36Z" fill="#c5cae8"/><path d="M507.25,465.65a4.17,4.17,0,0,1-3.05.33l-28.69-7.89c-1-.29-1.34-.9-.69-1.37L493,443.79a4.23,4.23,0,0,1,3.07-.33l28.69,7.89c1,.28,1.33.9.68,1.37Z" fill="#c5cae8"/><path d="M546.76,476.53a4.19,4.19,0,0,1-3.06.33L515,469c-1-.28-1.33-.9-.68-1.36l18.2-12.93a4.14,4.14,0,0,1,3.06-.34l28.69,7.9c1,.28,1.33.9.67,1.36Z" fill="#c5cae8"/><path d="M586.27,487.4a4.19,4.19,0,0,1-3.06.33l-28.69-7.9c-1-.28-1.34-.9-.69-1.36L572,465.54a4.17,4.17,0,0,1,3.07-.34l28.7,7.9c1,.29,1.33.9.67,1.36Z" fill="#c5cae8"/><path d="M625.78,498.27a4.19,4.19,0,0,1-3.08.33L594,490.7c-1-.28-1.33-.89-.68-1.35l18.19-12.94a4.16,4.16,0,0,1,3.06-.33L643.28,484c1,.29,1.35.91.69,1.37Z" fill="#c5cae8"/><path d="M665.29,509.13a4.1,4.1,0,0,1-3.06.33l-28.69-7.89c-1-.29-1.34-.9-.69-1.36L651,487.27a4.25,4.25,0,0,1,3.08-.33l28.68,7.89c1,.29,1.34.91.68,1.37Z" fill="#c5cae8"/><path d="M754.28,533.63a4.16,4.16,0,0,1-3.07.32L673,512.44c-1-.28-1.33-.9-.68-1.36l18.19-12.94a4.22,4.22,0,0,1,3.07-.33l78.17,21.52c1,.28,1.33.9.68,1.36Z" fill="#c5cae8"/><path d="M512.13,442.29a4.1,4.1,0,0,1-3,.33l-28.7-7.9c-1-.29-1.34-.89-.68-1.36l18.19-12.94a4.17,4.17,0,0,1,3.05-.32l28.7,7.9c1,.28,1.32.89.68,1.35Z" fill="#c5cae8"/><path d="M551.65,453.16a4.15,4.15,0,0,1-3.06.33l-28.7-7.9c-1-.28-1.33-.89-.68-1.35l18.2-12.94a4.15,4.15,0,0,1,3-.33l28.71,7.9c1,.28,1.33.9.69,1.35Z" fill="#c5cae8"/><path d="M591.15,464a4.12,4.12,0,0,1-3,.32l-28.69-7.89c-1-.28-1.36-.9-.7-1.36l18.2-12.94a4.19,4.19,0,0,1,3.06-.32l28.69,7.89c1,.28,1.34.9.69,1.36Z" fill="#c5cae8"/><path d="M630.66,474.91a4.15,4.15,0,0,1-3.06.33l-28.69-7.9c-1-.28-1.34-.89-.69-1.36L616.42,453a4.24,4.24,0,0,1,3.06-.32l28.68,7.9c1,.28,1.34.89.69,1.35Z" fill="#c5cae8"/><path d="M670.18,485.77a4.15,4.15,0,0,1-3.06.33l-28.7-7.9c-1-.29-1.34-.89-.68-1.36l18.2-12.94a4.15,4.15,0,0,1,3-.32l28.7,7.9c1,.28,1.33.9.69,1.35Z" fill="#c5cae8"/><path d="M709.67,496.64a4.12,4.12,0,0,1-3,.33l-28.68-7.89c-1-.29-1.36-.9-.7-1.36l18.2-12.94a4.16,4.16,0,0,1,3.07-.32l28.68,7.89c1,.28,1.33.9.68,1.35Z" fill="#c5cae8"/><path d="M749.18,507.52a4.13,4.13,0,0,1-3,.32l-28.7-7.9c-1-.28-1.34-.88-.68-1.35L735,485.65a4.15,4.15,0,0,1,3-.33l28.7,7.9c1,.29,1.33.9.69,1.36Z" fill="#c5cae8"/><path d="M527.84,421.9a4.13,4.13,0,0,1-3.07.33l-28.69-7.89c-1-.28-1.33-.89-.67-1.37L513.61,400a4.15,4.15,0,0,1,3-.33l28.69,7.9c1,.28,1.34.89.7,1.35Z" fill="#c5cae8"/><path d="M567.34,432.77a4.15,4.15,0,0,1-3.06.34l-28.69-7.9c-1-.28-1.34-.89-.68-1.37l18.2-12.93a4.16,4.16,0,0,1,3-.33l28.69,7.9c1,.28,1.33.9.69,1.35Z" fill="#c5cae8"/><path d="M606.85,443.65a4.13,4.13,0,0,1-3.07.33l-28.69-7.9c-1-.28-1.33-.89-.67-1.36l18.2-12.94a4.09,4.09,0,0,1,3-.32l28.69,7.89c1,.29,1.34.9.7,1.36Z" fill="#c5cae8"/><path d="M646.35,454.52a4.15,4.15,0,0,1-3.06.34l-28.7-7.9c-1-.29-1.34-.9-.67-1.37l18.19-12.94a4.24,4.24,0,0,1,3.06-.32l28.69,7.9c1,.28,1.33.89.69,1.35Z" fill="#c5cae8"/><path d="M685.87,465.38a4.16,4.16,0,0,1-3.06.34l-28.69-7.9c-1-.29-1.34-.89-.67-1.37l18.19-12.93a4.17,4.17,0,0,1,3.05-.33l28.7,7.9c1,.28,1.32.89.67,1.35Z" fill="#c5cae8"/><path d="M725.38,476.25a4.15,4.15,0,0,1-3.08.34l-28.69-7.9c-1-.28-1.33-.89-.67-1.36l18.2-12.94a4.17,4.17,0,0,1,3.05-.33l28.69,7.9c1,.29,1.35.9.7,1.36Z" fill="#c5cae8"/><path d="M764.88,487.13a4.11,4.11,0,0,1-3.06.33l-28.7-7.89c-1-.29-1.33-.9-.67-1.37l18.2-12.94a4.11,4.11,0,0,1,3.05-.32l28.69,7.9c1,.28,1.33.89.69,1.35Z" fill="#c5cae8"/><path d="M449,400.22a4.13,4.13,0,0,1-3.07.33l-48.65-13.39c-1-.28-1.34-.89-.68-1.36l18.2-12.94a4.13,4.13,0,0,1,3.06-.32l48.64,13.38c1,.29,1.34.9.7,1.36Z" fill="#c5cae8"/><path d="M829.44,480.19a4.12,4.12,0,0,1-3.07.33l-48.65-13.39c-1-.28-1.33-.89-.67-1.36l18.18-12.93a4.23,4.23,0,0,1,3.07-.34L847,465.9c1,.28,1.34.89.68,1.36Z" fill="#c5cae8"/><path d="M433.3,420.6a4.09,4.09,0,0,1-3.06.33l-58-16c-1-.29-1.35-.89-.69-1.36l18.2-12.94a4.14,4.14,0,0,1,3.06-.32l58,16c1,.29,1.33.9.69,1.36Z" fill="#c5cae8"/><path d="M388.92,433.1a4.19,4.19,0,0,1-3.06.33l-38.67-10.65c-1-.28-1.34-.9-.69-1.36l18.19-12.93a4.17,4.17,0,0,1,3.07-.34l38.67,10.65c1,.28,1.34.9.69,1.36Z" fill="#c5cae8"/><path d="M493.61,387.79a4.24,4.24,0,0,1-3.08.33l-28.67-7.9c-1-.28-1.34-.89-.69-1.36l18.19-12.93a4.13,4.13,0,0,1,3.07-.33l28.67,7.89c1,.29,1.35.9.69,1.36Z" fill="#c5cae8"/><path d="M532.94,398.6a4.23,4.23,0,0,1-3.07.33l-28.7-7.9c-1-.28-1.34-.9-.68-1.36l18.19-12.94a4.23,4.23,0,0,1,3.07-.33l28.69,7.9c1,.29,1.35.9.69,1.37Z" fill="#c5cae8"/><path d="M572.43,409.47a4.14,4.14,0,0,1-3.06.33l-28.69-7.9c-1-.28-1.33-.89-.68-1.36l18.19-12.93a4.11,4.11,0,0,1,3.06-.33l28.69,7.89c1,.29,1.34.9.68,1.36Z" fill="#c5cae8"/><path d="M612,420.34a4.13,4.13,0,0,1-3.07.33l-28.68-7.89c-1-.29-1.34-.9-.68-1.36l18.19-12.93a4.12,4.12,0,0,1,3.07-.33l28.67,7.89c1,.28,1.35.89.69,1.36Z" fill="#c5cae8"/><path d="M651.44,431.21a4.12,4.12,0,0,1-3.05.34l-28.69-7.9c-1-.28-1.34-.9-.69-1.36l18.19-12.93a4.12,4.12,0,0,1,3.07-.33L669,416.92c1,.29,1.33.89.67,1.36Z" fill="#c5cae8"/><path d="M691,442.08a4.21,4.21,0,0,1-3.06.33l-28.7-7.9c-1-.28-1.33-.89-.67-1.36l18.19-12.93a4.13,4.13,0,0,1,3-.34l28.7,7.9c1,.29,1.34.9.68,1.37Z" fill="#c5cae8"/><path d="M730.47,453a4.1,4.1,0,0,1-3.06.33l-28.69-7.89c-1-.29-1.35-.9-.69-1.37l18.19-12.93a4.12,4.12,0,0,1,3.07-.33l28.69,7.9c1,.28,1.34.89.68,1.36Z" fill="#c5cae8"/><path d="M770,463.82a4.13,4.13,0,0,1-3.05.34l-28.71-7.91c-1-.28-1.32-.89-.67-1.35L755.73,442a4.18,4.18,0,0,1,3-.33l28.71,7.9c1,.28,1.33.89.67,1.36Z" fill="#c5cae8"/><path d="M793.2,475.81a4.72,4.72,0,0,0-1.67-.12,3,3,0,0,0-1.37.45L772,489.07c-.3.22-.44.49-.3.76a1.53,1.53,0,0,0,1,.61l7.49,2.06-23.86,17c-.31.22-.42.49-.28.75a1.47,1.47,0,0,0,1,.61l19.33,5.32a4.8,4.8,0,0,0,1.68.12,3,3,0,0,0,1.39-.44l43.25-30.75c.31-.22.42-.48.28-.75a1.46,1.46,0,0,0-1-.61Z" fill="#c5cae8"/><path d="M383.55,426.47a.44.44,0,0,1-.3,0l-21.93-6c-.12,0-.19-.09-.15-.12l1.33-.94a.41.41,0,0,1,.29,0l21.94,6c.12,0,.18.09.14.12Z" fill="#c5cae8"/><path d="M503.2,558.62,398.05,530.31c-1.22-.32-1.24-1.28-.05-2.12l42.76-30.12a6,6,0,0,1,4.38-.93l105.14,28.3c1.22.33,1.24,1.28.05,2.12l-42.75,30.12A6.09,6.09,0,0,1,503.2,558.62Z" fill="#c5cae8"/><path d="M945,137.2v-.1c0-.15,0-.29,0-.44l0-.34a.07.07,0,0,0,0,0v0c0-.14,0-.28-.05-.42s0-.27-.07-.41,0,0,0-.06v-.05l-.06-.29c0-.13-.06-.26-.1-.4a1.21,1.21,0,0,1,0-.18l0-.08,0-.13c0-.13-.09-.27-.14-.4s-.09-.24-.13-.37h0l-.16-.39-.18-.38a.31.31,0,0,0,0-.1l0-.08a1.24,1.24,0,0,1-.1-.2l-.2-.36-.15-.27,0,0,0,0c-.06-.11-.13-.22-.2-.33l-.21-.32-.09-.13,0-.06-.09-.12-.23-.33-.25-.31,0,0,0-.05-.28-.33-.27-.3-.18-.2-.09-.09-.47-.47-.15-.15,0,0c-.2-.2-.42-.38-.64-.56l-.09-.08-.09-.07-.23-.18-.39-.3-.15-.1L939,127l-.15-.1a3.77,3.77,0,0,0-.39-.26l-.3-.19-.06,0,0,0-.43-.25-.45-.24h0l-.45-.21a4,4,0,0,0-.47-.21l0,0-.07,0-.35-.14-.47-.17-.13,0h-.06l-.28-.1-.48-.14-11.3-3-12.36,9.45s11.85,2.66,12,2.71l.47.15.47.18.47.19.2.09c.24.11.49.22.73.35h0c.25.12.49.26.73.39l.09.06.66.41.1.07.62.44.11.08.59.47.3.26.35.31.38.38a3,3,0,0,1,.25.25l.21.22.36.41.09.11c.16.19.31.38.46.58l0,.05c.15.2.3.41.44.63l0,.06c.14.21.27.42.39.64l0,.08c.12.21.24.42.34.64l.05.09c.11.22.2.43.3.65a.42.42,0,0,0,0,.1c.09.22.17.44.25.66l0,.1c.07.22.14.45.2.67,0,0,0,.06,0,.09.06.23.11.46.16.69s0,.23,0,.35,0,.28.06.41,0,.29,0,.44,0,.29,0,.44a3.68,3.68,0,0,1,0,.47c0,.12,0,.25,0,.37l-.05.67-2.58,35.2c-.71-.19-8.43,10.47-8.19,10.61,0,0-11.36,262.9-11.36,262.9-.08,1.19-4.48,9.61-3.37,8.78l11.55-11.65a13.73,13.73,0,0,0,4.13-8.53l21.79-304c.08-1.19.21-3,.21-3s0-.24,0-.37,0-.2,0-.31v-.06Z" fill="#aeadd6"/><path d="M931.84,124.15,469.32.87h0L468.6.68h0L467.37.36l-.47-.1-.48-.09L465.94.1l-.5,0L465,0H463.9l-.22,0h-.33c-.18,0-.36,0-.54.06h-.05l-.63.11-.07,0-.28.07-.33.08-.09,0-.44.15-.24.08-.05,0a8,8,0,0,0-.84.38l-.06,0-.09,0a9.35,9.35,0,0,0-1,.63l-12.13,9a9,9,0,0,1,1-.62l.41-.2.49-.23.62-.22.24-.08a8.89,8.89,0,0,1,.89-.22l.17,0c.31-.06.63-.1.95-.13h.07a9.13,9.13,0,0,1,1.05,0h.08l1.06.06.1,0c.38,0,.76.1,1.14.17l.48.11.36.09,2.57.68h0L921.4,133.61a2,2,0,0,0,1.63-.34l9.08-6.74C933.13,125.77,933,124.45,931.84,124.15ZM465.07,2.44Z" fill="#e6e9ff"/><path d="M922.22,133.43,455.56,9.05c-6.34-1.69-11.8,1.49-12.21,7.09L424.72,270.36c0,.33,0,.66,0,1l-2,27.93c-.41,5.6,4.39,11.51,10.72,13.2L900,436.86c6.34,1.68,11.8-1.49,12.21-7.09l18.64-254.21c0-.34,0-.68,0-1l2.05-27.92C933.35,141,928.55,135.12,922.22,133.43Z" fill="#474770"/><path d="M909,150.24,466.83,36.12c-6-1.55-11.2,1-11.61,5.73l-2.62,30a5.59,5.59,0,0,0-.21,1.11L433.7,286.89c-.41,4.72,4.12,9.79,10.12,11.34L886,412.35c6,1.55,11.2-1,11.6-5.74l2.63-30a6.72,6.72,0,0,0,.21-1.12l18.69-213.91C919.54,156.86,915,151.78,909,150.24Z" fill="#aeabd1"/><line x1="760.68" y1="587.34" x2="741.82" y2="601.7" fill="none" stroke="#3a4157" stroke-linecap="round" stroke-linejoin="round" stroke-width="1.73"/><line x1="737.12" y1="605.64" x2="718.26" y2="620" fill="none" stroke="#3a4157" stroke-linecap="round" stroke-linejoin="round" stroke-width="1.73"/><line x1="433.27" y1="333.11" x2="901.5" y2="464.05" fill="none" stroke="#3a4157" stroke-linecap="round" stroke-linejoin="round" stroke-width="1.73"/><ellipse cx="315.33" cy="444.95" rx="31.34" ry="12.26" fill="#aeadd6"/><polygon points="348.15 270.7 364.89 306.17 358.14 313.57 334.92 275.4 348.15 270.7" fill="#ed5377"/><path d="M347,295.24l9.95-6s.39,6.29-3.87,7.61S347,295.24,347,295.24Z" fill="#ba4141"/><path d="M304.19,450.8l.35-17.15c-.4-1.62-2.57-1.95-4.3-3.47a2.12,2.12,0,0,0-2.64-.19L296,431.18c-2.43,1.64-2.55,2.12-2,4.26l3.15,12.68a8.09,8.09,0,0,0,4.26,5.12l.51.2C303.67,454.12,304.72,452.93,304.19,450.8Z" fill="#343456"/><path d="M299,430.58s.94,10.94,3.62,11.61c0,0,1.72.42,1.77-2.35s.78-8.13.78-8.13Z" fill="#ed5377"/><path d="M347,295.24s8.25.21,9.95-6l-2.55-5.11-10.71,5.65Z" fill="#fff"/><path d="M308.59,231.12s-12.57,2.46-15.66,7.28,2.37,16.68,2.37,16.68v-6.2S288,237,308.09,234.34C321.56,232.58,308.59,231.12,308.59,231.12Z" fill="#27427a"/><path d="M308.35,231.49s-20.73,13.42-13.05,26.42,28.52,18.6,28.52,18.6l8.47-43.67Z" fill="#27427a"/><path d="M341.49,444.7l-12.8-9a16.44,16.44,0,0,0-7.38-.32,1.87,1.87,0,0,0-1.64,1.92l.14,2c.07,2.86.43,3.25,2.59,4.12l12.81,5.17c2.16.87,5.24.77,6.84-.22l.45-.28C344.11,447.1,343.65,445.57,341.49,444.7Z" fill="#343456"/><path d="M320.77,436c.15,4,8.23,5.41,8.38,1.37,9.81-37.42,11.07-71.68,12.94-111.25l-24.73-20.82c2,34.35,5.13,63.44,4.52,93.1-.08,3.85-2,7.92-2.21,11.61C319.22,417.64,321.43,428.48,320.77,436Z" fill="#ed5377"/><path d="M324.5,410.29c.22-3.69,2.13-7.77,2.21-11.61.21-9.81,0-19.57-.44-29.47-.84-18.85-5.73-20.29-4.84-.27.44,9.9.65,19.65.45,29.47-.08,3.84-2,7.91-2.21,11.61-.44,7.67,1.77,18.52,1.1,26C320.89,439,324.06,418,324.5,410.29Z" fill="#ba4141"/><path d="M320.39,405.87s4.06-11.56,9.33-11.43a7.74,7.74,0,0,1,7,4.07l1.88-12.3-16.78.88-.06,11.58a9.35,9.35,0,0,1-.24,2.11Z" fill="#ba4141"/><path d="M298.44,429.65c-.88,3.48,4.08,6.86,6.3,3.72,6.67-13.74,11.56-24.32,16.1-34.7,3.44-7.87,4.18-17.27,5.62-26.7,3.44-22.51-19.82-28.19-18.66-5.32a162.91,162.91,0,0,1-.85,28.1c-.56,4.52-3.13,4.29-4.62,11.88S300.51,418.64,298.44,429.65Z" fill="#ed5377"/><path d="M303.77,410.49c1.86-9.51,7-13.51,7.69-19.17,1.44-11.69,3.61-22.41,3-34.12a35.34,35.34,0,0,1,.09-5.1c-3.9,1-7.1,5.56-6.66,14.41a161.83,161.83,0,0,1-.85,28.09c-.55,4.52-3.13,4.3-4.62,11.88s-1.81,12-3.88,23c-.69,2.72,1.49,2.13,2,2C302.82,419,302,419.73,303.77,410.49Z" fill="#ba4141"/><path d="M341.18,257.19,356.7,284.9s-3.81,12.5-17.68,6.87C319.81,284,341.18,257.19,341.18,257.19Z" fill="#4658c9"/><path d="M308.31,309.78c-10.76.21-.07,42.78-4.33,73.39,0,0,22.44,20.64,41.44,2.56l-.7-70.36Z" fill="#27427a"/><path d="M320.84,392.23c-12.71-18.3-8.76-71.52-1.85-79.24l-10.68-3.21c-10.76.21-.07,42.78-4.33,73.39A43.87,43.87,0,0,0,320.84,392.23Z" fill="#343456"/><path d="M344.22,313.36c.63-7.53-3,7.49-2.85-1.22.05-3.35,1.67-12.95,2.48-19.29.76-5.93,7-9.45,5.68-16.68-.17-3.94-7.14-11.24-7.44-14.12-.48-4.56-.8-8.76-10.37-13.24l-4.21.91a27.27,27.27,0,0,0-5.78,1.93c-19.52,9-23.77,9.48-22.41,20.92.22,5.88,3.72,1.3,4.77,5.19,2,7.47,9.91,15.08,7.13,28.18-.56,2.64-2.63,4.44-.27,6.2C321.15,319.74,340.64,321.19,344.22,313.36Z" fill="#596fff"/><path d="M344.86,313.29c0,.29,0,0,0,0Z" fill="#ff5cab"/><path d="M349.71,275.85c-.17-4-7.14-11.25-7.44-14.13l-.53.22c.34,3.16,5.15,11.43,5.33,15.76,1.21,6.8-2.93,10.21-4.66,15.15l3.17-3.65C347,285.8,351,283.07,349.71,275.85Z" fill="#7588ff"/><path d="M310,274.74l-4.09,14.19,2.45,20.85,6.71,2.36v-18C312.18,288.52,311,281.69,310,274.74Z" fill="#4658c9"/><path d="M366.11,318.42l-3.68,2.1c-1.81,1-4.12,1-5.16-.12l-.72-.76c-1-1.09-.4-2.82,1.4-3.84l3.69-2.1c1.8-1,4.12-1,5.15.11l.72.76C368.55,315.66,367.92,317.39,366.11,318.42Z" fill="#ed5377"/><path d="M326.64,318.21l-.11-.79,1.31.38.2-.5,29.13-14.92a2,2,0,0,1,1.48,0l14.42,6.13,0-.17,2.61.78.13.83h0a.37.37,0,0,1-.21.22l-30.31,15.52a2,2,0,0,1-1.48,0l-16.7-7.1c-.25-.11-.39-.25-.42-.38Z" fill="#bfc6c9"/><path d="M345.14,324.9l30.31-15.53c.35-.18.26-.49-.21-.69l-16.69-7.1a2,2,0,0,0-1.49,0l-30.31,15.53c-.35.17-.26.48.21.68l16.69,7.1A2,2,0,0,0,345.14,324.9Z" fill="#dde5e8"/><path d="M341.45,315.15l7.34-3.76c.08,0,.06-.12-.05-.17l-4-1.71a.45.45,0,0,0-.36,0L337,313.26c-.08,0-.06.11.05.16l4,1.72A.5.5,0,0,0,341.45,315.15Z" fill="#bfc6c9"/><path d="M328.31,318.34a62.31,62.31,0,0,1-29.37-8.49,7.81,7.81,0,0,1-3.9-6.5c-.13-6-.06-16.76,2-18.51l9.39,10.76-.44,6c10.25,4.51,15.63,9.85,21.89,11.76Z" fill="#ed5377"/><path d="M299.93,308.5c-2.12-1.72-2.89-5.27-2.95-7.9-.09-4.27-.08-10.85.65-15l-.69-.78c-2,1.74-2.11,12.47-2,18.51a7.78,7.78,0,0,0,3.9,6.5,62.38,62.38,0,0,0,29.37,8.48S309,315.9,299.93,308.5Z" fill="#ba4141"/><path d="M311.22,256.46s7.16,17.16,17.57,12.69,2.86-20,2.86-20A88.22,88.22,0,0,0,311.22,256.46Z" fill="#ed5377"/><path d="M323.3,259.76l.69.14a3.9,3.9,0,0,0,4.79-3.15l1.68-12.41a4.53,4.53,0,0,0-3.69-4.85l-.69-.14a3.89,3.89,0,0,0-4.79,3.15l-3.47,11.55C317.52,256.25,321,259.29,323.3,259.76Z" fill="#ed5377"/><path d="M346.08,308.6a3,3,0,0,1,1.48-1.82l32-16a1,1,0,0,1,.71-.13h0a.42.42,0,0,1,.16.09l1.06.79h-1l-3.09,15.34a3.08,3.08,0,0,1-1.49,1.82l-30.3,15.16-1,.91-.12.22a5,5,0,0,1-2.07-.57Z" fill="#fff"/><path d="M347.44,302.37a3,3,0,0,1,1.49-1.82l32-16a1,1,0,0,1,.7-.13h0a.56.56,0,0,1,.17.09l1,.79h-1l-3.09,15.34a3,3,0,0,1-1.49,1.83l-30.29,15.16-1,.91-.12.21a5.08,5.08,0,0,1-2.08-.56Z" fill="#fff"/><path d="M382,285.35l-32,16a3,3,0,0,0-1.49,1.83l-3.12,15.51s0,0,0,0L344.08,325c-.13.66.32.91,1,.57l32-16a3.05,3.05,0,0,0,1.49-1.82l3.12-15.51v0l1.25-6.21C383.13,285.26,382.68,285,382,285.35Z" fill="#27427a"/><path d="M363.25,306.2c0,1.13,1,1.5,2.37.82a4.48,4.48,0,0,0,2.5-3.27c0-1.13-1-1.49-2.37-.82A4.51,4.51,0,0,0,363.25,306.2Z" fill="#fff"/><path d="M323,438.76s9.15,3.73,10.81,2.64c1.4-.92-5.37-5.35-5.37-5.35Z" fill="#ed5377"/><path d="M313.21,255.5s6.31,17.7,16.7,13c8.06-3.64,2.21-18.28,2.21-18.28l2.17.42s7,17.18-4.81,22c-10.35,4.23-19-15.79-19-15.79Z" fill="#fff"/><path d="M329.48,250.61a13.2,13.2,0,0,1-9.63-5.49s3.93,8.12,9.15,9Z" fill="#ba4141"/><path d="M313.21,255.5a20.77,20.77,0,0,1,4.57-2.05l2.59-8.87s-1.23,1.79,1.5,4.5l-.48,1.8a9.48,9.48,0,0,1-4.36,5.76L314.27,258Z" fill="#ba4141"/><path d="M313.34,291.08s7.43,6.62,12.65,5.5c0,0-9.24,3.27-12.65,2.11S313.34,291.08,313.34,291.08Z" fill="#4658c9"/><path d="M345.58,289.2l-.18.27c-.59.82-2.48,3.29-4.42,3.91l2.87.68Z" fill="#4658c9"/><path d="M297.08,302.05l8.89-.45s-3.5,4.26-8.78,2.72Z" fill="#ba4141"/><path d="M294.85,301s4.38,3.4,11.12.63l.39-4.85-11.51-.82Z" fill="#fff"/><path d="M310.56,274.28l-3.09,20.27a5.71,5.71,0,0,1-5.26,5.11c-3.94.16-9-.56-9-5.31A83.79,83.79,0,0,1,298.32,265c1-2.61,3.63-3.36,6.77-5.39.51-.33.31,2.7.88,3.13h0A12.33,12.33,0,0,1,310.56,274.28Z" fill="#596fff"/><path d="M298.32,265s-6.46,18.14-5.12,30a4.42,4.42,0,0,0,3.67,4.1,16.29,16.29,0,0,1-1.2-6.45c.09-3.6,1.57,1.27,2.11,0s.81-6.13.54-9.49,1.73-13,.76-15.28S298.32,265,298.32,265Z" fill="#4658c9"/><path d="M325.19,315h0a3.56,3.56,0,0,0,2.89,4.1l6.69,1.14a3.57,3.57,0,0,0,4.1-2.89h0a3.56,3.56,0,0,0-2.9-4.1l-6.68-1.14A3.56,3.56,0,0,0,325.19,315Z" fill="#ed5377"/><path d="M318.44,225.33c2-3.18,5-3.73,7.8-1.9,2.74-1.12,6.06.52,8.51,4.68,3.4,5.79,3.07,13.83.94,18.88-1.15,2.73-2.51,4.64-9.05,3.5-4.44-.85-6.93-2.15-9.44-6.42C313.79,238.28,315.55,230,318.44,225.33Z" fill="#ed5377"/><path d="M322.52,240.06s6.7,2.64,10.82-6.37c0,0,1.46-3.09.84-4.4S322.52,240.06,322.52,240.06Z" fill="#ba4141"/><path d="M334,230.34c-7.87,12.18-12.46,8.68-12.65,10.58,0,0-1.33,5.06-1.33,5.07-.8,3.77-4.63,2.24-8.32,3.46h0s-12.09-14,2.94-25.24c10.17-7.61,24.24-.12,22.72,9.89Z" fill="#27427a"/><path d="M317.42,242.52a3.2,3.2,0,0,0,4.05,1.32,2.62,2.62,0,0,0,1-3.78,3.2,3.2,0,0,0-4-1.32A2.63,2.63,0,0,0,317.42,242.52Z" fill="#ed5377"/><path d="M320.46,241.46a.69.69,0,0,0,.05-1.05c-.45-.45-1.13-.86-1.64,0s.05,2,.54,2.72a.13.13,0,0,0,.24-.1,1.07,1.07,0,0,1,.34-1.26C320.18,241.65,320.34,241.55,320.46,241.46Z" fill="#ba4141"/><path d="M332.89,247.86h0c1.16-.45,2.1-2.31,2.1-4.15l-4.2,1.64C330.79,247.19,331.73,248.31,332.89,247.86Z" fill="#fff"/><path d="M456.17,464.1,440.05,460c-2.17-.55-3.21-3.24-2.32-6L446.2,428c.89-2.74,3.39-4.53,5.56-4l16.11,4.1c2.17.56,3.22,3.25,2.33,6l-8.47,26.05C460.84,462.86,458.33,464.65,456.17,464.1Z" fill="#c5cae8"/><path d="M453.87,463.42l-16.12-4.1c-2.17-.55-3.21-3.24-2.32-6l8.46-26.06c.89-2.74,3.4-4.53,5.57-4l16.11,4.1c2.17.55,3.21,3.25,2.32,6l-8.46,26.05C458.54,462.18,456,464,453.87,463.42Z" fill="#27427a"/><path d="M453.61,459.8l-13.29-3.38c-1.78-.46-2.65-2.68-1.91-4.94l7.38-22a3.58,3.58,0,0,1,4.32-2.33l12.34,3.3a3.59,3.59,0,0,1,2.5,4.53l-6.76,21.58C457.46,458.78,455.4,460.25,453.61,459.8Z" fill="#e6e9ff"/><polygon points="380.31 536.71 407.59 542.38 408.51 513.73 381.24 508.06 380.31 536.71" fill="#27427a"/><polygon points="436.87 493.26 425.64 480.44 437.7 469.7 447.78 488.07 436.87 493.26" fill="#ed5377"/><path d="M425.71,632.2c-12.42-6.79-33.68-7.23-47.48-1a28.25,28.25,0,0,0-5.94,3.54c-8.77-2.84-20.65-2.49-28.83,1.2-9.69,4.39-10.48,11.82-1.75,16.59,8.4,4.58,22.5,5,32.2,1.17.57.38,1.18.75,1.83,1.1,12.43,6.8,33.68,7.24,47.48,1S438.14,639,425.71,632.2Z" fill="#e6e9ff"/><path d="M401.26,639.73l9.61,1.93c7.11-.73,10.7-1.87,12.91.64l.63.71c.8,1.72-.63,4.4-3.26,5.32l-19.49,7.06c-3.78.77-7.69-.65-7.6-4,0,0,.33-9.4,2.05-9.72C399.58,641,398.24,640.34,401.26,639.73Z" fill="#27427a"/><path d="M406.14,644.49c-.18,3.93-9.76,3.51-9.58-.43l.57-12.79,9.57.42Z" fill="#a8acba"/><path d="M408.68,633.11c-3.5,4.42-11.8,4.08-13.49.95-.45-18.14-5.94-37.62,1.85-62.3L391.38,496l33.53,7.84L414.84,583.3Z" fill="#27427a"/><path d="M344.34,625.89c-2.24,2.8-10.1-2.71-7.86-5.51l7.27-9.09,7.86,5.5Z" fill="#a8acba"/><path d="M349.75,619.76c-4.79,2.65-10.89-5.43-11.43-8.65,6.17-15.65,10.63-38.4,25.7-47l7.65-42.37c-.32-6.55,1.06-11.7,4.07-21.18l23.78,15.07-23.69,63.55a16.44,16.44,0,0,1-1.65,3.27Z" fill="#27427a"/><path d="M410.74,414.56c.36,7.75-4.22,11.52-10.23,8.42s-8.46-12.56-8.83-20.31,1.48-10.88,7.49-7.77S410.37,406.8,410.74,414.56Z" fill="#ed5377"/><path d="M420.63,411.59c-.47,7.75-7.69,12.13-13.34,8.4s-9.85-13-9.38-20.79,5.42-11,11.07-7.28S421.09,403.85,420.63,411.59Z" fill="#ed5377"/><path d="M401.29,434.88l-.79-.23a5.06,5.06,0,0,1-3.41-6.25l4.4-15a5,5,0,0,1,6.24-3.41l.79.23a5,5,0,0,1,3.41,6.25l-2.11,15C409,434.16,404,435.66,401.29,434.88Z" fill="#ed5377"/><path d="M393.93,417.58s1.28,5.27,10.83,4.51c7.22-.57,2.46-13.07,9.14-15.91,9-3.84,5.8-12.66,2-15.64s-8.89-1.49-15.12.38C394.16,392.88,385.13,397.64,393.93,417.58Z" fill="#27427a"/><path d="M416,409.52a3.42,3.42,0,1,1-3.2-3.62A3.41,3.41,0,0,1,416,409.52Z" fill="#ed5377"/><path d="M371.52,507c1.43-19,4.47-24.19,4.07-40.68,1.38-31.45,2.28-39.83,12.63-41.62l6.92-.54c2.14.48,4.11,1.53,6.22,2.12,8.85,2.47,14.56,3.15,20.85,6.82,5.61,3.28,5.67,11.55,5.43,18.46.89,20.33.31,50.87.28,60.89C424.21,526.65,376.63,516.86,371.52,507Z" fill="#aeabd1"/><path d="M413.45,421.13l-1.2-1.65a5.15,5.15,0,0,0,4.33.15A6.59,6.59,0,0,1,413.45,421.13Z" fill="#ba4141"/><path d="M430,454l-5.42,5.48c-6.95,24.6-4.91,49.83-15.33,60.08,6.17.18,11.84-.45,16.12-3.38.22,0,2.21-1.62,2.59-4.7Z" fill="#8d89c9"/><path d="M394,423.68s-1.82,4.51,3.5,6.38,14.29-.83,14.29-.83S406.06,422.84,394,423.68Z" fill="#fff"/><path d="M413.71,411.69h0a1.13,1.13,0,0,1-1.24-1l-1.79-7.31c-.06-.62,1.54-.2,2.17-.27h0c.62-.06,2.41-.57,2.48.06l-.6,7.29A1.13,1.13,0,0,1,413.71,411.69Z" fill="#27427a"/><path d="M458,466h0a5.73,5.73,0,0,0,8.08.36l5.62-5.13a5.73,5.73,0,0,0,.37-8.08h0a5.74,5.74,0,0,0-8.09-.37l-5.62,5.13A5.74,5.74,0,0,0,458,466Z" fill="#ed5377"/><path d="M431,450.47h0a5.73,5.73,0,0,0,8.08.36l5.62-5.13a5.73,5.73,0,0,0,.37-8.08h0a5.74,5.74,0,0,0-8.09-.37l-5.62,5.13A5.74,5.74,0,0,0,431,450.47Z" fill="#ed5377"/><path d="M466.06,466.41s-11,26.31-16.81,32.07-14-7.58-14-7.58l21.43-30Z" fill="#ed5377"/><path d="M410.9,453.37l17.3,32.92c3.06,8.38,24.56,1.12,19.89-8.49-.3-.61-23.69-42.9-23.69-42.9S412.12,441.45,410.9,453.37Z" fill="#aeabd1"/><path d="M429.62,480c4.22,4.36,15.47,1,16.9-5.37" fill="none" stroke="#fff" stroke-linecap="round" stroke-linejoin="round" stroke-width="1.19"/><path d="M344.69,625.9l-.15,8.88c1.81,6.22,6.4,7.1,4.53,9.48l-1.56,1.28c-1.57,1.49-6.63.85-7.63-.53l-8.48-13.8a8.54,8.54,0,0,1,2.27-9.31s2.72-2.54,4.06-2.53C340.93,619.38,343.64,623.3,344.69,625.9Z" fill="#27427a"/><rect x="824.15" y="98.06" width="1.66" height="75.62" transform="translate(481.81 898.29) rotate(-75.12)" fill="#8785a3"/><path d="M636.16,168.23l-74.72-19.85,7-81.53L643.16,86.7Zm-72.94-21.1,71.45,19L641.39,88,569.93,69Z" fill="#8785a3"/><path d="M709.24,187.65,634.53,167.8l7-81.53,74.71,19.85Zm-72.94-21.1,71.45,19,6.72-78.17L643,88.38Z" fill="#8785a3"/><path d="M855.4,226.49l-74.71-19.85,7-81.54L862.41,145Zm-72.93-21.1,71.45,19,6.71-78.18-71.45-19Z" fill="#8785a3"/><rect x="518.83" y="186.85" width="80.15" height="1.66" transform="translate(323.97 728.43) rotate(-85.08)" fill="#8785a3"/><path d="M702.38,267.51l-74.71-19.85,7-81.54L709.38,186Zm-72.94-21.1,71.45,19,6.72-78.17-71.45-19Z" fill="#8785a3"/><path d="M775.46,286.93l-74.71-19.86,7-81.53,74.72,19.85Zm-72.93-21.1,71.45,19,6.71-78.17-71.45-19Z" fill="#8785a3"/><path d="M848.54,306.34l-74.71-19.85,7-81.53,74.71,19.85Zm-72.93-21.1,71.45,19,6.71-78.17-71.45-19Z" fill="#8785a3"/><rect x="511.97" y="266.71" width="80.15" height="1.66" transform="matrix(0.09, -1, 1, 0.09, 238.14, 794.6)" fill="#8785a3"/><path d="M622.44,327.94l-74.71-19.85,7-81.53,74.71,19.85Zm-72.94-21.1,71.45,19,6.72-78.17-71.45-19Z" fill="#8785a3"/><path d="M695.52,347.36l-74.71-19.85,7-81.54,74.72,19.86Zm-72.94-21.1,71.46,19,6.71-78.18-71.45-19Z" fill="#8785a3"/><path d="M768.6,366.78l-74.71-19.85,7-81.54,74.72,19.85Zm-72.93-21.1,71.45,19,6.71-78.18-71.45-19Z" fill="#8785a3"/><path d="M841.69,386.2,767,366.35l7-81.54,74.71,19.85Zm-72.94-21.1,71.45,19,6.71-78.18-71.45-19Z" fill="#8785a3"/><rect x="751.07" y="78.64" width="1.66" height="75.62" transform="translate(446.27 813.23) rotate(-75.12)" fill="#8785a3"/><path d="M507.5,280.55s20-28.74,52.12-20.77c24.52,6.1,11.13,9.13,41.09,9.73,17.67.35,48.36-40,91.42-32.58,78,13.42,112.12-69.56,144-38.74L820.84,390,505.2,309.38Z" fill="#fff"/><path d="M505,311.59a.75.75,0,0,1-1-.82l15.29-191.62a1.75,1.75,0,0,1,1.2-1.45.74.74,0,0,1,1,.82L506.23,310.15A1.77,1.77,0,0,1,505,311.59Z" fill="#cecce8"/><path d="M583.82,329.47a.74.74,0,0,1-1-.82L598.08,137a1.77,1.77,0,0,1,1.2-1.44.74.74,0,0,1,1,.82L585,328A1.77,1.77,0,0,1,583.82,329.47Z" fill="#cecce8"/><path d="M662.42,349.75a.74.74,0,0,1-1-.81l15.28-191.63a1.78,1.78,0,0,1,1.2-1.45.75.75,0,0,1,1,.82L663.62,348.31A1.73,1.73,0,0,1,662.42,349.75Z" fill="#cecce8"/><path d="M741,370a.75.75,0,0,1-1-.82l15.28-191.63a1.77,1.77,0,0,1,1.2-1.44.74.74,0,0,1,1,.81L742.23,368.54A1.78,1.78,0,0,1,741,370Z" fill="#cecce8"/><path d="M820.83,390.2a.74.74,0,0,1-1-.81l15.28-191.63a1.78,1.78,0,0,1,1.2-1.45.75.75,0,0,1,1,.82L822,388.76A1.77,1.77,0,0,1,820.83,390.2Z" fill="#cecce8"/><path d="M835.32,181.84,825,178.53c-1.14-.36-2-2-1.84-3.61h0c.13-1.63,1.17-2.65,2.31-2.29l10.32,3.3c1.14.37,2,2,1.84,3.62h0C837.5,181.17,836.46,182.2,835.32,181.84Z" fill="#cecce8"/><path d="M755.26,164.85l-10.32-3.3c-1.14-.37-2-2-1.84-3.62h0c.13-1.62,1.17-2.65,2.31-2.28l10.32,3.3c1.14.37,2,2,1.84,3.62h0C757.44,164.19,756.4,165.22,755.26,164.85Z" fill="#cecce8"/><path d="M677,147.79l-10.32-3.3c-1.14-.37-2-2-1.84-3.62h0c.13-1.62,1.17-2.65,2.31-2.29l10.32,3.31c1.14.36,2,2,1.84,3.61h0C679.18,147.13,678.14,148.15,677,147.79Z" fill="#cecce8"/><path d="M597.64,130.05l-10.31-3.31c-1.15-.36-2-2-1.84-3.61h0c.13-1.62,1.17-2.65,2.31-2.29l10.31,3.31c1.14.36,2,2,1.84,3.61h0C599.82,129.39,598.78,130.41,597.64,130.05Z" fill="#cecce8"/><path d="M519.55,111.4l-10.31-3.31c-1.14-.36-2-2-1.84-3.61h0c.13-1.63,1.17-2.65,2.31-2.29l10.31,3.3c1.14.37,2,2,1.84,3.62h0C521.73,110.73,520.69,111.76,519.55,111.4Z" fill="#cecce8"/><path d="M577,309.25l-86.87-23.46c-3.79-1-6.61-5.5-6.27-10l3.95-51.21c.35-4.45,3.73-7.25,7.52-6.23l86.87,23.45c3.8,1,6.62,5.51,6.27,10l-4,51.2C584.18,307.47,580.8,310.27,577,309.25Z" fill="none" stroke="#3a4157" stroke-linecap="round" stroke-linejoin="round" stroke-width="1.73"/><polygon points="501.44 280.82 488.87 277.42 490.2 260.11 502.78 263.51 501.44 280.82" fill="#5277d9"/><polygon points="519.58 285.72 507 282.32 509.13 254.71 521.71 258.11 519.58 285.72" fill="#5277d9"/><polygon points="537.71 290.61 525.13 287.22 527.92 251.1 540.5 254.49 537.71 290.61" fill="#5277d9"/><polygon points="555.85 295.51 543.27 292.11 546.33 252.48 558.91 255.88 555.85 295.51" fill="#5277d9"/><polygon points="573.98 300.4 561.4 297.01 565.18 248.04 577.76 251.44 573.98 300.4" fill="#5277d9"/><path d="M636.75,250.13c14.82-9.06,32.81-16.92,54.89-13.57,70.77,10.75,97.37-46.12,133.43-45.47" fill="none" stroke="#3a4157" stroke-linecap="round" stroke-linejoin="round" stroke-width="1.73"/><path d="M814.4,188.93a73.57,73.57,0,0,1,10.67,2.16l-7.94,6.34" fill="none" stroke="#3a4157" stroke-linecap="round" stroke-linejoin="round" stroke-width="1.73"/><polygon points="520.34 214.06 494.11 206.64 497.3 163.97 523.53 171.39 520.34 214.06" fill="#596fff"/><polygon points="552.49 223.15 526.26 215.74 528.35 187.83 554.58 195.25 552.49 223.15" fill="#fff"/><polygon points="585.62 232.53 559.39 225.11 563.58 169.16 589.81 176.58 585.62 232.53" fill="#ff5c97"/><path d="M463.06,193.4l-63-16.24c-3.51-.9-6.14-5.09-5.87-9.35l7.67-122.24c.27-4.25,3.33-7,6.84-6.07l63,16.24c3.51.9,6.14,5.09,5.87,9.35L469.9,187.33C469.63,191.59,466.57,194.31,463.06,193.4Z" fill="url(#linear-gradient-3)"/><path d="M427.63,76.28l-13.55-3.49c-2.75-.71-4.81-4-4.6-7.32h0c.21-3.34,2.61-5.47,5.36-4.76l13.55,3.49c2.74.71,4.8,4,4.59,7.33h0C432.77,74.86,430.38,77,427.63,76.28Z" fill="#ff5c97"/><path d="M445,102.07,424.55,96.8c-2.18-.56-3.81-3.15-3.64-5.79h0c.16-2.64,2.06-4.33,4.24-3.77l20.42,5.27c2.18.56,3.81,3.15,3.64,5.79h0C449.05,100.94,447.15,102.63,445,102.07Z" fill="#fff"/><path d="M460.72,128.38l-37.55-9.68c-2.17-.56-3.8-3.15-3.64-5.79h0c.17-2.64,2.07-4.32,4.24-3.76l37.55,9.67c2.17.56,3.8,3.16,3.64,5.8h0C464.79,127.25,462.89,128.94,460.72,128.38Z" fill="#a7d1e8"/><path d="M442.22,145.87l-20.42-5.26c-2.18-.56-3.81-3.16-3.64-5.8h0c.16-2.64,2.06-4.32,4.24-3.76l20.42,5.26c2.18.56,3.81,3.16,3.64,5.8h0C446.3,144.75,444.4,146.43,442.22,145.87Z" fill="#fff"/><path d="M423.3,162l-14-3.61c-2.18-.56-3.8-3.15-3.64-5.79h0c.17-2.64,2.06-4.33,4.24-3.77l14,3.61c2.18.56,3.8,3.15,3.64,5.79h0C427.37,160.91,425.48,162.6,423.3,162Z" fill="#ff5c97"/><path d="M736.14,527.68c49-23,48.78-60.31-.55-83.42l-23.16,10.85c-48.28-13.16-111-10.14-152.12,9.12-49,23-48.78,60.3.56,83.41S690,570.86,739,547.9l-89.33-41.84,20.17-9.45Z" fill="#70689c" opacity="0.19" style="mix-blend-mode:multiply"/><path d="M709.91,538.64c-46.67,21.86-122.58,21.75-169.54-.25s-47.2-57.54-.53-79.4,33.84-25.61,80.8-3.62l56.26,14.52,32.48,4.75Z" fill="url(#linear-gradient-4)"/><path d="M505.3,431l-.21,65.21s-4.72,23.93,35.28,42.14v-49.7l-23.67-22.9-8.2-14.24Z" fill="#3c5cb3"/><path d="M709.64,458.7s36.86-10.58,34.85-53.1c-.16-3.49,0-15,0-15-12.54-15.24-34.82,38.6-34.82,38.6Z" fill="#db2e6d"/><path d="M540.37,488.69c-47-22-47.2-57.55-.53-79.4l85,39.82L540.37,475Z" fill="#3c5cb3"/><path d="M672,407.32c-47-22-85.52-19.89-132.19,2l85,39.82L672,475Z" fill="#89b1e8"/><path d="M709.91,475.21C663.24,497.07,587.33,497,540.37,475s-47.2-57.54-.53-79.4,122.57-21.74,169.54.25l-84.51,39.58Z" fill="#5986ff"/><path d="M540.37,475c-47-22-47.2-57.54-.53-79.4l85,39.83Z" fill="#4367c7"/><path d="M709.38,395.81c-47-22-122.87-22.1-169.54-.25l85,39.83Z" fill="#abcfff"/><path d="M709.11,351.81c47,22,47.2,57.54.53,79.4l-85-39.83Z" fill="#ff5c97"/><path d="M624.72,435.46l.15-.07-85-39.83c-21.08,9.87-32.58,22.54-34.54,35.48C544,432.52,597.16,434.46,624.72,435.46Z" fill="#2c4482"/><path d="M624.72,435.46l.15-.07,85,39.82c-21.08,9.87-48.12,15.26-75.76,16.18C631,473.25,626.86,448.36,624.72,435.46Z" fill="#fff"/><polygon points="624.61 391.38 624.61 417.11 709.64 458.7 709.64 431.21 624.61 391.38" fill="#f03c7d"/><path d="M634.15,491.39v63.43s42.6.71,75.76-16.18V475.21S677,491.18,634.15,491.39Z" fill="#abcfff"/><path d="M799.7,290.27s-2.84,30.78,13.79,28.82,17.2-22.37,17.2-22.37Z" fill="#27427a"/><polygon points="787.82 303.79 802.68 313.4 813.91 315.65 809.84 326.04 799.5 322.74 784.77 310.65 787.82 303.79" fill="#596fff"/><path d="M777,298.66h0a4.82,4.82,0,0,1,6.76-.58l2.64,2.22a4.8,4.8,0,0,1,.59,6.75h0a4.8,4.8,0,0,1-6.75.59l-2.65-2.22A4.82,4.82,0,0,1,777,298.66Z" fill="#ed5377"/><path d="M765.3,217.59c7.54,35.5-15.94,56-41.34,56.81s-48.08-23.34-50.64-53.91,15.94-56,41.34-56.8S758.92,187.58,765.3,217.59Z" fill="#637a94" opacity="0.4" style="mix-blend-mode:multiply"/><polygon points="773.62 301.64 764.39 314.06 742.64 271.67 753.85 263.09 773.62 301.64" fill="#24307d"/><path d="M808.09,347.22h0L781.19,297h0c-.76-2.13-3.22-3.35-7.06-3.05-6.67.51-14.92,5.41-18.42,10.93-1.81,2.86-2,5.31-.82,6.95h0l6.3,11.77h0l26.71,49.94L814.4,359Z" fill="#2f40a6"/><path d="M809.09,358c6-.88,7.38,2.35,3.14,7.19s-12.52,9.49-18.49,10.36-7.38-2.35-3.14-7.2S803.12,358.88,809.09,358Z" fill="#24307d"/><path d="M735.35,166.37c-25.4-13.61-52.08-.48-59.59,29.34s7,65,32.42,78.63,52.09.47,59.59-29.35S760.76,180,735.35,166.37ZM764.74,242c-6.38,25.32-32.93,35.81-54.52,24.24s-33.9-41.46-27.53-66.78,30.92-40,52.5-28.4S771.11,216.63,764.74,242Z" fill="#24307d"/><path d="M780.42,227.08c0-.65.08-1.3.1-2,0-.12,0-.23,0-.35,0-.31,0-.62,0-.93s0-.76,0-1.14v-.64c0-.33,0-.67,0-1s0-.52,0-.78,0-.63,0-.94,0-.68,0-1c0-.17,0-.33,0-.5,0-.45-.08-.89-.11-1.33,0-.29,0-.58-.07-.87,0-.08,0-.16,0-.24-.08-.8-.17-1.6-.27-2.39v0l0-.22q-.13-1-.3-2.1l-.06-.33c0-.27-.1-.53-.14-.79s-.13-.76-.2-1.14l-.15-.71-.18-.88c0-.21-.09-.43-.14-.64-.09-.42-.2-.85-.3-1.27-.05-.22-.1-.45-.16-.68l-.06-.24c-.18-.74-.38-1.47-.59-2.21l0-.09c-.06-.21-.13-.42-.19-.63-.17-.57-.33-1.13-.51-1.7l-.09-.26c-.15-.46-.31-.92-.47-1.37l-.38-1.11a1.54,1.54,0,0,0-.08-.19c-.43-1.19-.89-2.36-1.38-3.52,0-.09-.07-.2-.11-.29-.13-.3-.26-.58-.39-.87-.21-.48-.42-1-.64-1.42s-.39-.83-.59-1.24-.45-.93-.69-1.38l-.22-.46-.58-1.07c-.13-.24-.26-.49-.4-.73-.42-.76-.85-1.52-1.3-2.26v0h0v0c-.51-.85-1-1.68-1.58-2.5l-.07-.11c-.4-.6-.81-1.18-1.22-1.77-.08-.11-.16-.24-.25-.35v0c-.49-.69-1-1.37-1.51-2l-.08-.1-.48-.6c-.33-.41-.65-.83-1-1.23-.06-.08-.13-.15-.19-.22-.23-.28-.47-.54-.7-.81l-.77-.88c-.09-.11-.19-.21-.29-.32l-.78-.83-.66-.71-.4-.38c-.28-.29-.56-.57-.85-.84s-.39-.4-.59-.59l-.49-.43-.87-.8-.54-.48c-.19-.17-.39-.33-.59-.49l-.88-.73-.45-.38-.75-.57-.84-.63-.33-.26c-.34-.25-.69-.48-1-.72l-.71-.5-.19-.12c-.63-.42-1.26-.83-1.91-1.22h0l-.14-.08q-.87-.53-1.77-1l-.45-.24c-.49-.27-1-.52-1.47-.76l-.56-.26c-.25-.13-.51-.24-.76-.36l-.59-.28-.95-.39-.68-.29-.29-.11c-.63-.25-1.27-.48-1.9-.7h0c-.65-.22-1.3-.43-2-.61l-.25-.07-.71-.19-1-.26-.5-.11-.87-.18-.68-.14c-.23-.05-.47-.08-.7-.12l-.88-.14-.47-.07-.83-.09-1-.1-.37,0-.85,0-1.11-.05h-.33c-.25,0-.5,0-.75,0l-1.33,0H724c-.49,0-1,.06-1.47.11l-.18,0-1.11.11-.7.11-.53.08c-.64.1-1.28.21-1.91.35H718l-.51.13c-.53.12-1.06.25-1.58.4l-.75.23c-.34.1-.68.19-1,.31l-.25.09c-.51.18-1,.37-1.52.57l-.74.29c-.74.31-1.47.64-2.2,1l-11.82,5.91c.72-.36,1.46-.7,2.2-1l.74-.29c.5-.19,1-.39,1.52-.57l1.25-.4.76-.23c.52-.15,1-.27,1.58-.4.17,0,.34-.09.51-.12.65-.14,1.31-.26,2-.37l.53-.08c.6-.09,1.2-.16,1.8-.22l.19,0c.61-.06,1.23-.09,1.84-.11l1.34,0H715l1.11.05,1.22.08,1,.11c.44,0,.87.09,1.31.16l.88.14c.46.07.92.16,1.38.25l.87.19c.5.11,1,.23,1.5.37l.71.18c.73.21,1.46.43,2.19.68h0c.72.25,1.45.53,2.18.82l.68.28c.52.21,1,.44,1.55.67l.76.36c.68.32,1.35.66,2,1s1.49.83,2.23,1.27l.13.08c.72.43,1.42.88,2.12,1.35l.7.49c.47.32.93.64,1.38,1l.83.63c.41.31.81.63,1.21,1l.88.73,1.13,1,.87.79,1.08,1,.85.84c.36.36.71.73,1.06,1.1l.78.83c.36.39.71.79,1.06,1.19l.7.81c.4.48.79,1,1.18,1.45l.48.6c.55.71,1.08,1.42,1.6,2.15l.24.35c.44.62.87,1.25,1.3,1.88.53.82,1.06,1.64,1.56,2.48l0,.05h0c.45.75.89,1.51,1.31,2.27.14.24.27.49.4.74.27.5.54,1,.8,1.52L761,195c.2.41.4.83.59,1.24s.43.94.63,1.42.35.77.51,1.17q.73,1.72,1.38,3.51c.16.43.31.86.46,1.3s.32.91.47,1.38c.2.64.4,1.29.59,1.94.07.21.14.43.2.64.24.85.47,1.7.68,2.55,0,.22.11.45.16.67.15.64.3,1.28.44,1.92l.18.87c.12.61.24,1.23.35,1.85,0,.26.09.53.14.79.13.82.25,1.63.36,2.45l0,.2c.12.89.21,1.78.3,2.66,0,.29,0,.58.07.87,0,.61.09,1.22.13,1.83,0,.34,0,.68,0,1,0,.57,0,1.14.05,1.71,0,.34,0,.68,0,1,0,.59,0,1.18,0,1.77,0,.31,0,.62,0,.93,0,.77-.07,1.55-.12,2.32,0,.11,0,.22,0,.34-.07.88-.15,1.76-.25,2.64l-.09.75c-.08.63-.16,1.25-.26,1.88,0,.3-.09.61-.14.91-.1.59-.21,1.19-.32,1.78-.06.28-.11.57-.17.86-.18.84-.36,1.68-.57,2.51s-.47,1.74-.72,2.59c-.07.24-.15.47-.22.71-.19.58-.37,1.16-.57,1.73-.11.33-.23.65-.35,1s-.36,1-.55,1.43-.28.69-.43,1-.37.86-.56,1.29-.35.76-.53,1.13l-.57,1.14c-.23.44-.46.87-.7,1.3s-.37.67-.56,1c-.3.52-.61,1-.93,1.52-.19.31-.39.63-.59.93s-.21.31-.31.46c-.35.52-.72,1-1.09,1.52l-.21.29c-.47.62-.95,1.23-1.45,1.81v0c-.49.58-1,1.15-1.51,1.7l-.32.32c-.39.41-.79.81-1.19,1.2l-.49.46c-.38.35-.77.7-1.16,1l-.44.39c-.53.44-1.07.87-1.62,1.28l-.24.17c-.47.35-1,.7-1.45,1l-.53.35c-.42.27-.84.53-1.27.78l-.52.32c-.59.33-1.19.66-1.79,1l11.82-5.92c.61-.3,1.2-.62,1.79-1l.53-.31q.63-.37,1.26-.78l.54-.35c.48-.33,1-.67,1.45-1l.23-.17q.83-.61,1.62-1.29l.45-.38,1.15-1,.49-.47c.4-.38.8-.78,1.19-1.19l.32-.33.09-.09c.49-.52,1-1.06,1.43-1.61h0c.46-.55.91-1.11,1.35-1.69l.09-.12a3.15,3.15,0,0,1,.22-.29c.37-.5.73-1,1.08-1.52.1-.16.21-.31.31-.46a4,4,0,0,0,.23-.34c.13-.19.24-.4.37-.6.31-.49.62-1,.92-1.51l.25-.41c.11-.19.21-.39.31-.59.24-.43.47-.86.7-1.3.09-.18.19-.36.29-.54s.18-.4.28-.6c.18-.38.36-.75.53-1.14.09-.19.19-.38.27-.58s.2-.47.3-.7l.42-1c.07-.17.15-.34.22-.52l.33-.91c.12-.32.24-.64.35-1,0-.14.1-.26.14-.4.15-.43.29-.88.43-1.33.07-.24.15-.47.22-.72l.06-.17c.22-.75.43-1.5.62-2.27l0-.14c.17-.7.34-1.41.49-2.12,0-.13,0-.26.08-.4s.11-.57.17-.85.14-.67.2-1l.12-.78.15-.9.09-.6c.06-.43.11-.86.16-1.29,0-.25.07-.5.09-.74a2.42,2.42,0,0,0,0-.25c.09-.78.16-1.56.21-2.35v-.05C780.4,227.31,780.41,227.2,780.42,227.08Z" fill="#24307d"/><path d="M734.52,164.28c-12.37-6.63-25.58-7.4-37.19-2.2-12.54,5.62-21.61,17.32-25.54,32.95-7.66,30.45,7.24,66.54,33.22,80.46a44.45,44.45,0,0,0,23.11,5.56,38.51,38.51,0,0,0,14.08-3.36c12.54-5.62,21.6-17.32,25.54-32.95C775.4,214.29,760.5,178.2,734.52,164.28Zm27.24,78.46c-3.46,13.75-11.44,24.05-22.47,29a34,34,0,0,1-12.38,3,39.1,39.1,0,0,1-20.34-4.89c-22.86-12.25-36-44-29.23-70.8,3.46-13.75,11.44-24.05,22.47-29,10.22-4.58,21.84-3.9,32.72,1.93C755.39,184.19,768.51,216,761.76,242.74Z" fill="#596fff"/><path d="M800.57,495.45c11.3-4.45,30.65-4.92,43.21-1,6.08,1.87,9.45,4.41,10,7a16.17,16.17,0,0,1,1.68-.69c6.24-2.16,16-2.26,21.72-.22s5.35,5.44-.89,7.6-16,2.26-21.72.23a8.69,8.69,0,0,1-3.23-1.82,20,20,0,0,1-5.31,2.91c-11.3,4.45-30.65,4.92-43.21,1S789.27,499.9,800.57,495.45Z" fill="#70689c" opacity="0.19" style="mix-blend-mode:multiply"/><path d="M862.63,484.74c.66,4.94,7,.21,6.89-3.56-8.38-25.42-17.23-46-27.23-54.35L839,372.62l-30.42-8,16.1,70.34Z" fill="#ed5377"/><path d="M813.33,496.55l-7.15,2.63c-5.55.29-8.44-.16-9.85,2l-.4.62c-1.4,2.19-.32,3.31,2.91,4.24l14.53,3c4.24.86,5.29-.55,6.3-3.12,0,0,.6-3.2-2.36-7C815.62,496.83,815.73,496.66,813.33,496.55Z" fill="#27427a"/><path d="M808.91,500c1.65,4,8.57,3,8.4-.31,6.43-50.6,1.39-53.56,1.39-64.58,0-12.31,2.15-25.63,10.48-49.11l-7.83,1.39A26,26,0,0,0,800,413.15C800.22,444.51,802.16,469.29,808.91,500Z" fill="#ed5377"/><path d="M802,366.85l-3.54,66.21s23.72,19.63,52-5.76C844,418.4,843,407,843.7,394.73c2.36-11.51-.7-20.89-4.14-29.08Z" fill="#27427a"/><path d="M820.63,322.26l.77-.18a4.9,4.9,0,0,0,3.6-5.89l-3.55-14.7a4.89,4.89,0,0,0-5.88-3.59l-.77.18a4.9,4.9,0,0,0-3.6,5.89l1.33,14.62C813.16,321.2,818,322.89,820.63,322.26Z" fill="#ed5377"/><path d="M839.56,365.65c-.2-11.61-.62-14.07,1.15-27.3.59-4.44.25-5.75.62-10.22.64-7.84-3.09-22-15.94-18.09l-1.15.83a26.7,26.7,0,0,0-5.46,2.21c-18.71,10.05-25.81,11.33-22.68,23.25,1,9,8.34,11.41,5.88,30.52C806.08,379.59,835.42,374.89,839.56,365.65Z" fill="#596fff"/><path d="M824.32,309a2.26,2.26,0,0,1,2.78,2.53c-.27,1.77-1.3,3.89-4.5,5-4.42,1.58-9.32.86-11.68.34a.64.64,0,0,1-.2-1.17C813.34,314.07,819.63,310.23,824.32,309Z" fill="#fffcfa"/><path d="M862.68,485.16l1.76,7.48c-.39,5.58-1.18,8.42.84,10.09l.57.47c2,1.67,4.09.6,4.59-2.39l4.43-13.6a6.52,6.52,0,0,0-3.63-6.85s-2.14-1.19-5.64,1.12C863.29,483,863.08,482.78,862.68,485.16Z" fill="#27427a"/><path d="M813.09,502.58l-9.22-.37a1.09,1.09,0,0,1-.42-2l5.71-3.54Z" fill="#ed5377"/><path d="M867.74,480.36s-2.13,10.85-3.3,12.28L862,483.43l1.51-5.45Z" fill="#ed5377"/><path d="M844.19,391.8s-3.17,5.95-5.58,6.17c0,0,3.15.21,5-1.08Z" fill="#223a6b"/><path d="M798.44,433.06,802,366.85l8.58,4.85s-6,58.78-.5,67.1A31.45,31.45,0,0,1,798.44,433.06Z" fill="#223a6b"/><path d="M761.31,331h0a4.81,4.81,0,0,1,6.7-1l2.77,2.07a4.8,4.8,0,0,1,1,6.71h0a4.81,4.81,0,0,1-6.7,1l-2.77-2.07A4.8,4.8,0,0,1,761.31,331Z" fill="#ed5377"/><path d="M802,366.85s.77-11.61-.85-15-8-17.67-8-17.67l3.56-4.55c4.13,6.94,12.46,7.33,14,44.18C810.66,373.84,803,372.25,802,366.85Z" fill="#4e62e0"/><path d="M807.35,338,795,361.33a5.86,5.86,0,0,1-9.65,1L767,340.65l5.87-7.39,11.9,12.44a2.36,2.36,0,0,0,3.87-.7l7.2-16.92Z" fill="#596fff"/><path d="M799.55,292.23s-.25,12.85,7.37,14.35,5.23-24.24,5.23-24.24Z" fill="#27427a"/><path d="M819.74,282.36c-2.14-3-5-3.39-7.53-1.42-2.69-.94-7,1.23-9.45,5.22-2,3.35-1.24,13.63.68,18.57.86,2.19,3.23,2.82,5,2.67,3.93-.33,4.87-.27,6.44-1,5.61-2.56,5.78-1.71,7.6-5.65C825.23,294.86,822.86,286.76,819.74,282.36Z" fill="#ed5377"/><path d="M809.87,284.13c-2,2.2,5.16,16,12.43,21.64,0,0,11.46-2.33,7.69-15.08-4.71-15.87-11.89-8.35-11.89-8.35Z" fill="#27427a"/><path d="M820.56,286c-6.73-1.51-13.21-4-20.61,7.19-1-1.26-.4-5.5,1.91-8.07,3.58-4,5.58-5.92,10-7.73L813,277c6.63-1.91,10.66.07,13.22,6.32.22.55,1.83,3,1.95,3.43l-2.29-.35C826.82,290.23,824.34,284.76,820.56,286Z" fill="#27427a"/><path d="M820.05,297.66a3.34,3.34,0,1,1-4-2.48A3.35,3.35,0,0,1,820.05,297.66Z" fill="#ed5377"/><polygon points="922 587.15 904.03 485.25 876.35 473.44 904.03 485.25 887.05 528.83 895.22 576.76 922 587.15 755.14 717.5 730.02 706.7 900.17 566.88 922 587.15" fill="#e6e9ff"/><polygon points="925.49 445.45 926.35 452.17 990.61 478.1 989.88 471.09 925.49 445.45" fill="#d84177"/><polyline points="921.97 586.88 895.18 576.49 887.01 528.56 904 484.97 876.31 473.17 813.48 642 838.6 652.81 904 484.97 921.97 586.88" fill="#ff5c97"/><polyline points="970.16 462.94 976.28 455.15 946.55 442.24 896.63 576.38 921.75 587.19" fill="#ff5c97"/><polyline points="838.51 651.57 811.72 641.18 803.55 593.25 820.53 549.67 792.85 537.86 730.02 706.7 755.14 717.5 820.53 549.67 838.51 651.57" fill="#ff5c97"/><polyline points="838.51 651.57 811.72 641.18 803.55 593.25 820.53 549.67 792.85 537.86 820.53 549.67 838.51 651.57" fill="#d84177"/><polyline points="922 587.15 895.22 576.76 887.05 528.83 904.03 485.25 876.35 473.44 904.03 485.25 922 587.15" fill="#d84177"/><polygon points="925.49 445.45 978.4 404.61 989.99 472.19 925.49 445.45" fill="#ff5c97"/><path d="M221.28,623.61,158.8,604.45c2.07-3.43,1.45-9.13,8-13.85l50.39-36.11c6.58-4.72,18-6.74,25.31-4.49L305,569.16c7.34,2.25,8,8,1.37,12.67L256,617.94C249.41,622.66,238,624.68,221.28,623.61Z" fill="#d9d6ed"/><polygon points="284.82 562.57 285.33 576.72 267.9 578.84 136.54 597.87 136.16 584.86 284.82 562.57" fill="#27427a"/><path d="M205,624.17,142.55,605c-7.34-2.25-8-8-1.37-12.67l50.39-36.11c6.58-4.72,18-6.74,25.32-4.49l62.47,19.16c7.34,2.25,8,8,1.37,12.67l-50.39,36.11C223.76,624.4,212.37,626.42,205,624.17Z" fill="#27427a"/><path d="M204.52,609.28,142,590.12c-7.33-2.25-7.95-8-1.37-12.67l50.39-36.12c6.59-4.72,18-6.74,25.32-4.49L278.86,556c7.33,2.25,7.95,8,1.37,12.67l-50.39,36.12C223.25,609.51,211.86,611.53,204.52,609.28Z" fill="#596fff"/><polyline points="196.31 560.58 193.74 582.63 239.02 566.33" fill="none" stroke="#fff" stroke-linecap="round" stroke-linejoin="round" stroke-width="2.82"/></g></g></svg>